HIERARCHY
ROOT Hip
{
	OFFSET 0.000000 0.000000 0.000000 
	CHANNELS 6 Xposition Yposition Zposition Zrotation Yrotation Xrotation
	JOINT Abdomen
	{
		OFFSET 0.000000 20.688101 -0.731520 
		CHANNELS 3 Zrotation Xrotation Yrotation
		JOINT Chest
		{
			OFFSET 0.000000 11.704300 -0.487680 
			CHANNELS 3 Zrotation Xrotation Yrotation
			JOINT Neck
			{
				OFFSET 0.000000 22.189400 -2.194560 
				CHANNELS 3 Zrotation Xrotation Yrotation
				JOINT Head
				{
					OFFSET -0.243840 7.071330 1.219200 
					CHANNELS 3 Zrotation Xrotation Yrotation
					End Site
					{
						OFFSET 1.000000 0.000000 0.000000 
					}
				}
			}
			JOINT RightCollar
			{
				OFFSET -2.682240 19.263399 -4.876800 
				CHANNELS 3 Zrotation Xrotation Yrotation
				JOINT RightShoulder
				{
					OFFSET -8.778240 -1.950730 1.463040 
					CHANNELS 3 Zrotation Xrotation Yrotation
					JOINT RightElbow
					{
						OFFSET -28.174200 -1.711500 0.487680 
						CHANNELS 3 Zrotation Xrotation Yrotation
						JOINT RightWrist
						{
							OFFSET -22.587900 0.773209 7.071360 
							CHANNELS 3 Zrotation Xrotation Yrotation
							End Site
							{
								OFFSET -1.692250 -0.517670 -0.607171 
							}
						}
					}
				}
			}
			JOINT LeftCollar
			{
				OFFSET 2.682240 19.263399 -4.876800 
				CHANNELS 3 Zrotation Xrotation Yrotation
				JOINT LeftShoulder
				{
					OFFSET 8.778240 -1.950730 1.463040 
					CHANNELS 3 Zrotation Xrotation Yrotation
					JOINT LeftElbow
					{
						OFFSET 28.174200 -1.711500 0.487680 
						CHANNELS 3 Zrotation Xrotation Yrotation
						JOINT LeftWrist
						{
							OFFSET 22.587900 0.773209 7.071360 
							CHANNELS 3 Zrotation Xrotation Yrotation
							End Site
							{
								OFFSET 1.692250 -0.517670 -0.607171 
							}
						}
					}
				}
			}
		}
	}
	JOINT RightHip
	{
		OFFSET -8.778240 4.350840 1.219200 
		CHANNELS 3 Zrotation Xrotation Yrotation
		JOINT RightKnee
		{
			OFFSET 0.000000 -38.526772 -1.463040 
			CHANNELS 3 Zrotation Xrotation Yrotation
			JOINT RightAnkle
			{
				OFFSET 0.731520 -45.110401 -5.120640 
				CHANNELS 3 Zrotation Xrotation Yrotation
				End Site
				{
					OFFSET -1.122100 -3.699640 12.103000 
				}
			}
		}
	}
	JOINT LeftHip
	{
		OFFSET 8.778240 4.350840 1.219200 
		CHANNELS 3 Zrotation Xrotation Yrotation
		JOINT LeftKnee
		{
			OFFSET 0.000000 -38.526772 -1.463040 
			CHANNELS 3 Zrotation Xrotation Yrotation
			JOINT LeftAnkle
			{
				OFFSET -0.731520 -45.110401 -5.120640 
				CHANNELS 3 Zrotation Xrotation Yrotation
				End Site
				{
					OFFSET 1.122100 -3.699640 12.103000 
				}
			}
		}
	}
}
MOTION
Frames: 11
Frame Time: 0.008333
52.673901 77.882896 -219.414993 0.000000 0.000000 0.000000 0.451120 -0.002651 0.012908 0.124553 -0.004150 0.021580 -0.000000 0.000000 0.000000 -0.000000 0.000000 0.000000 -0.000000 0.000000 0.000000 -0.000000 0.000000 0.000000 -0.000000 0.000000 0.000000 -0.000000 -0.000000 0.000000 -0.000000 0.000000 -0.000000 -0.000000 0.000000 -0.000000 -0.000000 -0.000000 0.000000 -0.000000 0.000000 0.000000 0.825474 -4.249530 -0.068964 -0.002604 2.145670 -0.017091 -0.486133 2.104020 0.098035 -0.137954 -2.500890 0.025346 0.007515 -1.021780 0.065029 0.479265 3.522760 -0.125855 
50.821602 76.928101 -218.854004 -5.606300 -5.684400 -0.221600 3.291990 4.145300 0.610159 -0.944792 -1.116340 0.250153 0.014725 1.071480 0.406685 -1.676950 -10.624200 0.247578 -0.000000 0.000000 0.000000 18.262100 12.347900 7.374410 -10.025700 -6.885850 12.320100 0.063890 -5.611870 -0.775098 -0.000000 0.000000 0.000000 -22.775299 -5.157970 4.455680 1.908050 -0.650034 -3.174160 -0.011258 -2.373910 0.332623 3.598740 0.507952 0.666445 0.038217 3.853480 0.212841 -0.628535 -2.814060 -1.802190 2.477500 -14.189500 -0.098660 -0.037604 8.189820 -0.133448 0.769493 1.022190 3.221510 
50.789600 76.877098 -217.906006 -6.021000 -6.084200 0.151400 6.196990 8.517400 1.243620 -2.065960 -2.292060 0.488922 0.013344 2.210990 0.833758 -3.340930 -21.851299 0.533747 -0.000000 0.000000 0.000000 33.854900 24.698400 16.323500 -17.431900 -13.087500 25.872999 -0.036769 -11.543700 -1.619990 -0.000000 0.000000 0.000000 -45.961700 -10.463400 9.261100 3.850810 -1.332300 -6.537500 0.007135 -4.918660 0.691156 6.400710 5.461030 1.421410 0.066542 5.693600 0.457725 -1.139220 -8.026420 -3.843130 5.159610 -26.562401 -0.238694 -0.012625 17.949400 -0.357118 1.386660 -1.587010 6.732380 
50.765701 76.840500 -216.867996 -6.447400 -6.487100 0.377500 8.709030 12.435700 1.843130 -3.056820 -3.340490 0.708361 -0.001515 3.213780 1.221760 -4.713890 -31.870100 0.859595 -0.000000 0.000000 0.000000 43.848099 34.329700 26.483999 -21.568399 -16.809700 38.619598 -0.281023 -16.823000 -2.417670 -0.000000 0.000000 0.000000 -65.870903 -15.093400 13.797700 5.509080 -1.926180 -9.527300 0.049457 -7.120750 1.004760 8.775210 10.016000 2.169890 0.078433 7.268680 0.676676 -1.909250 -12.593100 -5.734400 7.523510 -37.566002 -0.425906 0.081143 26.611900 -0.588663 2.223310 -3.914680 9.937660 
50.913399 76.890099 -215.686996 -6.241900 -6.860200 0.347100 10.420000 15.224300 2.322990 -3.740170 -4.070910 0.878500 -0.017909 3.875360 1.510450 -5.581470 -38.870201 1.182910 -0.000000 0.000000 0.000000 48.140202 39.699001 35.418098 -23.400700 -18.017700 47.766102 -0.543819 -20.482700 -3.009280 -0.000000 0.000000 0.000000 -79.278900 -18.379299 17.273600 6.609040 -2.322210 -11.578600 0.088745 -8.467170 1.198810 10.308100 13.580900 2.872300 0.080102 8.181560 0.827087 -2.609030 -15.602800 -7.112910 9.200680 -45.146500 -0.676748 0.194183 32.533001 -0.783019 3.017170 -5.604040 12.347800 
51.020199 76.964104 -214.429993 -6.052400 -7.426500 0.170900 11.124500 16.481400 2.599590 -4.006230 -4.362180 0.977939 -0.010711 4.065130 1.661790 -5.940690 -41.686600 1.387750 -0.000000 0.000000 0.000000 48.917599 41.271000 39.711102 -23.978600 -18.168200 51.427299 -0.666648 -21.878099 -3.245700 -0.000000 0.000000 0.000000 -84.352097 -20.121799 19.012199 6.982530 -2.451910 -12.292100 0.094853 -8.538360 1.209450 10.782400 15.821100 3.496370 0.081149 8.102500 0.877401 -2.877130 -16.512501 -7.664710 10.016900 -47.923199 -1.015320 0.245995 34.509998 -0.873950 3.501570 -6.473860 13.657900 
51.066898 76.891998 -213.179993 -6.137900 -7.948900 0.011800 11.132900 16.643700 2.722740 -3.976220 -4.339540 1.026700 0.016399 3.917790 1.714560 -5.988840 -41.513500 1.466930 0.000000 -0.000000 0.000000 48.309799 40.882500 39.910801 -23.963100 -18.241800 51.178001 -0.648292 -21.659000 -3.208580 0.000000 -0.000000 0.000000 -83.683098 -20.843000 19.422899 6.851810 -2.395880 -12.050200 0.075502 -7.702450 1.089250 10.524900 17.113100 4.055480 0.083725 7.318060 0.856061 -2.760860 -15.932700 -7.597670 10.277800 -47.269001 -1.365810 0.229096 33.675201 -0.874105 3.695830 -6.775770 14.169100 
51.104801 76.775703 -211.893005 -6.326900 -8.408300 -0.144100 10.819300 16.293800 2.799600 -3.820170 -4.181850 1.056760 0.033694 3.626850 1.723380 -5.832190 -40.080299 1.519120 0.000000 -0.000000 0.000000 47.275902 39.780899 38.343498 -23.715300 -18.292299 49.348400 -0.574897 -20.803499 -3.064030 0.000000 -0.000000 0.000000 -80.776199 -21.029400 19.261900 6.536240 -2.273640 -11.459500 0.054072 -6.628280 0.935690 9.946720 17.932800 4.569730 0.085215 6.355640 0.809549 -2.494340 -14.697100 -7.292310 10.329200 -45.261200 -1.596970 0.187550 31.887199 -0.840484 3.741950 -6.820010 14.288900 
51.099998 76.691902 -210.610992 -6.632800 -8.943600 -0.127200 10.549500 16.013599 2.940340 -3.707350 -4.067950 1.100170 0.010837 3.385840 1.742840 -5.561680 -39.116001 1.653930 0.000000 -0.000000 0.000000 46.683899 39.086201 37.365398 -23.567301 -18.310200 48.268700 -0.533038 -20.289499 -2.978330 0.000000 -0.000000 0.000000 -79.055199 -21.134399 19.323400 6.357480 -2.205400 -11.126300 0.044134 -5.984960 0.844235 9.435680 18.754999 5.068200 0.085759 5.742660 0.783600 -2.304150 -13.639700 -7.124550 10.430800 -43.976898 -1.639570 0.165099 31.004601 -0.828955 3.809230 -6.908180 14.429900 
51.169998 76.632103 -209.304001 -6.571400 -9.432400 -0.015600 10.371200 15.884700 3.187320 -3.675340 -4.036650 1.168010 -0.047547 3.227230 1.780510 -5.181060 -38.892502 1.890320 0.000000 -0.000000 0.000000 46.803799 39.032799 37.260601 -23.591000 -18.352200 48.341499 -0.533326 -20.294600 -2.979150 0.000000 -0.000000 0.000000 -79.126198 -21.072399 19.740200 6.401190 -2.225610 -11.204700 0.045777 -6.060130 0.854979 9.041610 19.677200 5.570610 0.086988 5.508860 0.786293 -2.219270 -12.896400 -7.188330 10.603100 -43.756302 -1.498490 0.166731 31.417200 -0.851627 3.933570 -7.202070 14.558200 
51.299099 76.572701 -207.906006 -6.200200 -9.947900 -0.086300 10.108200 15.621300 3.476880 -3.636430 -3.995520 1.242350 -0.129681 3.054200 1.809620 -4.651410 -38.550499 2.171960 0.000000 -0.000000 0.000000 47.125599 39.019600 36.910400 -23.608500 -18.383101 48.395000 -0.535012 -20.324900 -2.984000 0.000000 -0.000000 0.000000 -79.274200 -20.672501 20.111500 6.495330 -2.269180 -11.373900 0.052206 -6.460550 0.911956 8.584560 20.456699 6.054320 0.088422 5.409910 0.794522 -2.129860 -12.050800 -7.286740 10.715000 -43.562500 -1.209610 0.172811 32.169102 -0.880601 4.024410 -7.514840 14.501600 
